<?xml version="1.0" encoding="UTF-8"?>
<!-- Created with Inkscape (http://www.inkscape.org/) -->
<svg 
	width="300" 
	height="300" 
	version="1.1" 
	viewBox="0 0 300 300" 
	xmlns="http://www.w3.org/2000/svg">
 <g 
 	stroke="#000" stroke-linecap="round">
  <path 
  	d="m104.67 44.52c-11.965 0.003752 0.98782 18.573-18.463 21.134-21.839 2.8752-9.44-24.319-28.517-13.305-19.077 11.014 10.671 13.875-2.7391 31.35-13.41 17.476-23.869-10.519-29.57 10.758-5.7012 21.277 17.354 2.2641 20.229 24.103 2.8752 21.839-24.317 9.44-13.303 28.517 11.014 19.077 13.872-10.671 31.348 2.7391 17.476 13.41-10.517 23.871 10.76 29.572 21.277 5.7012 2.2618-17.356 24.101-20.232 21.839-2.8752 9.4422 24.317 28.519 13.303 19.077-11.014-10.673-13.872 2.7368-31.348 13.41-17.476 23.871 10.519 29.572-10.758 5.7012-21.277-17.356-2.2641-20.232-24.103-2.8752-21.839 24.319-9.4423 13.305-28.519-11.014-19.077-13.875 10.673-31.35-2.7368-17.476-13.41 10.519-23.871-10.758-29.572-2.3272-0.62357-4.1712-0.90295-5.6406-0.90249zm-12.308 51.781a16.105 16.105 0 0 1 16.107 16.105 16.105 16.105 0 0 1-16.107 16.105 16.105 16.105 0 0 1-16.105-16.105 16.105 16.105 0 0 1 16.105-16.105z" 
  	fill="#205" 
  	stroke-width=".43661" 
  	style="paint-order:fill markers stroke">
  	<animateTransform
  		id="eng1"
  		attributeName="transform"
  		type="rotate"
  		from="0 93.0 112.5"
  		to="90 93.0 112.5"
  		begin="0s;eng1.end"
  		dur="0.5s"
  		/>
  </path>
  <path d="m208.17 98.969c-11.353 0.0033 0.93726 17.623-17.518 20.053-20.722 2.728-8.9569-23.074-27.057-12.624-18.1 10.45 10.124 13.165-2.5989 29.746-12.723 16.581-22.647-9.981-28.057 10.207-5.4094 20.188 16.466 2.1482 19.194 22.87 2.728 20.722-23.072 8.9569-12.622 27.057 10.45 18.1 13.162-10.124 29.744 2.5989 16.581 12.723-9.9789 22.65 10.209 28.059 20.188 5.4094 2.1461-16.468 22.868-19.196 20.722-2.728 8.959 23.072 27.059 12.622 18.1-10.45-10.127-13.162 2.5967-29.744 12.723-16.581 22.65 9.981 28.059-10.207 5.4094-20.188-16.468-2.1482-19.196-22.87-2.728-20.722 23.074-8.959 12.624-27.059-10.45-18.1-13.165 10.127-29.746-2.5968-16.581-12.723 9.981-22.65-10.207-28.059-2.2081-0.59165-3.9577-0.85674-5.3519-0.85631zm-11.678 49.131a15.281 15.281 0 0 1 15.283 15.281 15.281 15.281 0 0 1-15.283 15.281 15.281 15.281 0 0 1-15.281-15.281 15.281 15.281 0 0 1 15.281-15.281z" 
  	fill="#f00" 
  	stroke-width=".41426" 
  	style="paint-order:fill markers stroke">
  	<animateTransform
  		id="eng2"
  		attributeName="transform"
  		type="rotate"
  		from="0 196.9 164.8"
  		to="-90 196.9 164.8"
  		begin="0s;eng1.begin"
  		dur="0.5s"
  		/>
  </path>
 </g>
</svg>
